<svg xmlns="http://www.w3.org/2000/svg" width="149.37" height="149.37" viewBox="0 0 149.373 133.956"><defs><linearGradient id="d" x1="37.823" x2="59.93" y1="125.35" y2="90.205" gradientTransform="matrix(1.7348 0 0 .57645 -7.4177 -17.968)" gradientUnits="userSpaceOnUse"><stop offset="0" stop-color="#323232"/><stop offset=".5"/><stop offset="1" stop-color="#fff"/></linearGradient><linearGradient id="e" x2="0" y1="521.18" y2="498.94" gradientUnits="userSpaceOnUse"><stop offset="0" stop-color="#fff" stop-opacity="0"/><stop offset="1" stop-color="#fff"/></linearGradient><radialGradient id="a" cx="100.05" cy="483.73" r="27.352" fx="100.76" fy="461.42" gradientUnits="userSpaceOnUse"><stop offset="0" stop-opacity=".537"/><stop offset=".5" stop-color="#fff" stop-opacity=".267"/><stop offset=".75" stop-opacity=".133"/><stop offset="1" stop-opacity="0"/></radialGradient><radialGradient id="c" cx="99.33" cy="480.49" r="42.109" fx="101.85" fy="457.1" gradientUnits="userSpaceOnUse"><stop offset="0" stop-color="#fff"/><stop offset=".504" stop-color="#dadada"/><stop offset=".514" stop-color="#bdbdbd"/><stop offset=".647" stop-color="#dedede"/><stop offset="1" stop-color="#fff"/></radialGradient><radialGradient id="b" cx="99.33" cy="481.57" r="42.109" fx="101.49" fy="495.61" gradientUnits="userSpaceOnUse"><stop offset="0" stop-opacity="0"/><stop offset=".5" stop-opacity="0"/><stop offset="1"/></radialGradient></defs><path fill="url(#a)" fill-rule="evenodd" d="m127.4 483.73a27.352 27.352 0 1 1 -54.704 0 27.352 27.352 0 1 1 54.704 0z" transform="matrix(2.7306 0 0 1.4884 -198.51 -626.73)"/><path fill="url(#c)" fill-rule="evenodd" d="m127.4 483.73a27.352 27.352 0 1 1 -54.704 0 27.352 27.352 0 1 1 54.704 0z" transform="matrix(1.7364 0 0 1.7364 -99.604 -792.36)"/><path fill="url(#b)" fill-rule="evenodd" d="m127.4 483.73a27.352 27.352 0 1 1 -54.704 0 27.352 27.352 0 1 1 54.704 0z" transform="matrix(1.7364 0 0 1.7364 -99.323 -792.44)"/><path fill="url(#e)" fill-rule="evenodd" d="m184.98 527.64a29.511 29.511 0 1 1 -59.022 0 29.511 29.511 0 1 1 59.022 0z" transform="matrix(1.2917 0 0 1.5246 -126.08 -758.12)"/><path fill="url(#d)" stroke="#000" stroke-linecap="round" stroke-linejoin="round" stroke-opacity=".149" stroke-width="6.207" d="m49.006 43.406h50.419v12.609h-50.419v-12.609z"/></svg>