<svg xmlns="http://www.w3.org/2000/svg" version="1.1" viewBox="0 0 1000 1000"><g transform="translate(0 -52.362)"><circle cx="500" cy="552.36" r="443.92" fill="#409fe2"/><g fill-opacity=".133"><path fill-opacity=".133" d="m793.32 1083.9a80.508 80.508 0 0 0 -80.507 80.511 80.508 80.508 0 0 0 3.9544 24.598l-185.28 106.97a80.508 80.508 0 0 0 -59.586 -26.507 80.508 80.508 0 0 0 -80.507 80.511 80.508 80.508 0 0 0 80.507 80.507 80.508 80.508 0 0 0 46.148 -14.656l190.17 109.79a80.508 80.508 0 0 0 -3.9012 24.622 80.508 80.508 0 0 0 80.511 80.511 80.508 80.508 0 0 0 80.507 -80.511 80.508 80.508 0 0 0 -80.507 -80.507 80.508 80.508 0 0 0 -59.586 26.503l-183.68-106.05a80.508 80.508 0 0 0 10.849 -40.214 80.508 80.508 0 0 0 -3.9503 -24.597l185.27-106.97a80.508 80.508 0 0 0 59.586 26.503 80.508 80.508 0 0 0 80.507 -80.507 80.508 80.508 0 0 0 -80.507 -80.511h-4e-3z" transform="matrix(1.0517 0 0 1.0517 -193.28 -869.21)"/></g><g><path fill="#e4ff1e" d="m793.32 1083.9a80.508 80.508 0 0 0 -80.507 80.511 80.508 80.508 0 0 0 3.9544 24.598l-185.28 106.97a80.508 80.508 0 0 0 -59.586 -26.507 80.508 80.508 0 0 0 -80.507 80.511 80.508 80.508 0 0 0 80.507 80.507 80.508 80.508 0 0 0 46.148 -14.656l190.17 109.79a80.508 80.508 0 0 0 -3.9012 24.622 80.508 80.508 0 0 0 80.511 80.511 80.508 80.508 0 0 0 80.507 -80.511 80.508 80.508 0 0 0 -80.507 -80.507 80.508 80.508 0 0 0 -59.586 26.503l-183.68-106.05a80.508 80.508 0 0 0 10.849 -40.214 80.508 80.508 0 0 0 -3.9503 -24.597l185.27-106.97a80.508 80.508 0 0 0 59.586 26.503 80.508 80.508 0 0 0 80.507 -80.507 80.508 80.508 0 0 0 -80.507 -80.511h-4e-3z" transform="matrix(1.0517 0 0 1.0517 -199.28 -875.21)"/></g></g></svg>